<?xml version="1.0" encoding="UTF-8" standalone="no"?>
<!DOCTYPE svg PUBLIC "-//W3C//DTD SVG 1.1//EN" "http://www.w3.org/Graphics/SVG/1.1/DTD/svg11.dtd">
<svg width="100%" height="100%" viewBox="0 0 4000 2000" version="1.1" xmlns="http://www.w3.org/2000/svg" xmlns:xlink="http://www.w3.org/1999/xlink" xml:space="preserve" xmlns:serif="http://www.serif.com/" style="fill-rule:evenodd;clip-rule:evenodd;stroke-linejoin:round;stroke-miterlimit:2;">
    <g transform="matrix(1.33333,0,0,1.33333,0,0)">
        <g id="Layer-1" serif:id="Layer 1" transform="matrix(4.16667,0,0,4.16667,0,0)">
            <g transform="matrix(1,0,0,1,226.499,99.6337)">
                <path d="M0,111.586C-2.48,110.181 -4.992,108.623 -7.479,106.986C-7.128,92.919 -3.659,78.226 2.872,63.981C19.578,27.546 41.911,13.609 71.386,5.974C48.324,7.641 29.169,15.353 14.506,31.381C10.732,28.933 4.872,24.438 0.101,20.377C23.695,1.005 57.355,-4.565 87.289,8.408C96.104,12.229 103.921,17.393 110.611,23.553C102.072,13.365 91.099,4.953 78.071,-0.693C45.278,-14.906 8.595,-7.672 -16.311,14.81C-15.777,15.485 -15.076,16.321 -14.237,17.27C-14.209,17.301 -14.182,17.332 -14.154,17.364C-13.982,17.557 -13.803,17.756 -13.619,17.96C-11.927,19.844 -9.984,21.834 -7.703,23.948C-3.361,28.018 2.366,32.777 9.449,37.498C4.876,43.575 0.813,50.614 -2.703,58.727C-3.609,60.819 -4.418,62.93 -5.15,65.05C-12.404,59.486 -16.316,55.97 -22.454,49.861C-18.966,42.118 -14.423,35.183 -9.054,29.151C-13.741,25.166 -17.237,21.593 -20.003,18.346C-26.683,25.121 -32.357,33.086 -36.683,42.1C-35.67,43.436 -34.476,44.978 -33.112,46.657C-28.154,52.799 -19.229,62.893 -7.025,71.153L-6.978,71.042C-10.084,82.65 -10.698,94.492 -9.078,105.921C-16.823,100.7 -24.193,94.837 -29.457,90.435C-30.238,80.732 -29.352,70.817 -26.589,61.128C-31.656,56.259 -35.859,51.346 -39.017,47.377C-43.536,58.587 -45.589,70.209 -45.42,81.625C-43.336,84.221 -40.637,87.347 -37.451,90.657C-31.081,97.347 -21.279,106.165 -7.719,113.262L-7.422,113.412C-4.669,114.842 -1.789,116.211 1.271,117.463C12.411,122.019 20.444,124.779 26.514,126.492C26.903,125.508 27.348,124.556 27.849,123.641C18.334,120.107 7.034,115.57 0,111.586" style="fill:rgb(102,102,102);fill-rule:nonzero;"/>
            </g>
            <g transform="matrix(1,0,0,1,199.74,254.264)">
                <path d="M0,-48.715C-7.218,-53.687 -13.405,-59.219 -18.046,-63.878C-14.444,-33.686 4.656,-6.163 34.565,6.8C49.042,13.074 64.276,15.163 78.922,13.613C68.484,13.368 57.92,11.153 47.751,6.745C23.46,-3.782 6.526,-24.757 0,-48.715" style="fill:rgb(102,102,102);fill-rule:nonzero;"/>
            </g>
            <g transform="matrix(1,0,0,1,248.197,176.287)">
                <path d="M0,6.943C-13.313,-1.128 -15.445,-3.798 -17.897,-5.939C-17.897,-5.939 -19.486,-1.748 -20.236,0.033C-20.236,0.033 -14.184,6.756 2.307,12.516C2.673,12.644 3.02,12.76 3.377,12.882C3.103,11.483 2.91,10.048 2.786,8.588C1.878,8.066 0.949,7.518 0,6.943" style="fill:rgb(102,102,102);fill-rule:nonzero;"/>
            </g>
            <g transform="matrix(-0.77434,0.632769,0.632769,0.77434,268.079,147.007)">
                <path d="M6.959,-18.147C8.262,-18.046 13.862,-16.843 14.948,-16.485C14.948,-16.485 13.199,-8.911 6.959,2.084C4.635,2.057 2.301,2.245 -0.019,2.654C4.254,-7.594 6.959,-18.147 6.959,-18.147" style="fill:rgb(102,102,102);fill-rule:nonzero;"/>
            </g>
            <g transform="matrix(1,0,0,1,293.406,223.93)">
                <path d="M0,24.464C-4.861,29.224 -9.059,31.527 -15.968,31.527C-27.483,31.527 -35.416,23.491 -35.416,12.181C-35.416,0.563 -26.408,-7.063 -15.865,-7.063C-9.774,-7.063 -3.89,-4.402 0.154,0.307L-4.76,5.016C-8.086,1.485 -11.72,-0.358 -16.019,-0.358C-22.929,-0.358 -28.559,4.965 -28.559,12.181C-28.559,19.756 -23.133,24.822 -15.865,24.822C-11.311,24.822 -8.239,22.98 -4.76,19.5L0,24.464Z" style="fill:rgb(102,102,102);fill-rule:nonzero;"/>
            </g>
            <g transform="matrix(1,0,0,1,302.007,240.973)">
                <path d="M0,-0.051C0,4.607 3.071,8.035 7.319,8.035C11.516,8.035 14.791,4.862 14.791,-0.102C14.791,-4.862 11.618,-8.086 7.319,-8.086C2.815,-8.086 0,-4.504 0,-0.051M14.484,10.697C12.079,13.051 9.52,14.279 6.091,14.279C-0.818,14.279 -6.857,8.342 -6.857,0C-6.857,-8.495 -1.125,-14.33 5.937,-14.33C9.213,-14.33 12.027,-13.102 14.484,-10.645L14.484,-13.614L21.292,-13.614L21.292,13.563L14.484,13.563L14.484,10.697Z" style="fill:rgb(102,102,102);fill-rule:nonzero;"/>
            </g>
            <g transform="matrix(1,0,0,1,334.405,251.056)">
                <path d="M0,-20.933C2.61,-23.134 5.016,-24.413 8.035,-24.413C13.102,-24.413 17.35,-20.933 17.35,-15.099L17.35,3.48L10.543,3.48L10.543,-9.366C10.543,-14.741 10.083,-18.169 5.937,-18.169C4.043,-18.169 2.405,-17.248 1.331,-15.559C-0.051,-13.359 0,-10.902 0,-8.087L0,3.48L-6.807,3.48L-6.807,-23.697L0,-23.697L0,-20.933Z" style="fill:rgb(102,102,102);fill-rule:nonzero;"/>
            </g>
            <g transform="matrix(1,0,0,1,361.379,240.973)">
                <path d="M0,-0.051C0,4.607 3.07,8.035 7.318,8.035C11.516,8.035 14.791,4.862 14.791,-0.102C14.791,-4.862 11.617,-8.086 7.318,-8.086C2.815,-8.086 0,-4.504 0,-0.051M14.483,10.697C12.078,13.051 9.52,14.279 6.091,14.279C-0.819,14.279 -6.858,8.342 -6.858,0C-6.858,-8.495 -1.126,-14.33 5.937,-14.33C9.212,-14.33 12.026,-13.102 14.483,-10.645L14.483,-13.614L21.291,-13.614L21.291,13.563L14.483,13.563L14.483,10.697Z" style="fill:rgb(102,102,102);fill-rule:nonzero;"/>
            </g>
            <g transform="matrix(1,0,0,1,392.6,231.197)">
                <path d="M0,9.725C0,14.383 3.07,17.811 7.318,17.811C11.516,17.811 14.791,14.638 14.791,9.674C14.791,4.914 11.617,1.69 7.318,1.69C2.815,1.69 0,5.272 0,9.725M14.483,20.473C12.078,22.827 9.52,24.055 6.091,24.055C-0.819,24.055 -6.858,18.118 -6.858,9.776C-6.858,1.281 -1.126,-4.554 5.937,-4.554C9.212,-4.554 12.027,-3.326 14.483,-0.869L14.483,-14.33L21.291,-14.33L21.291,23.339L14.483,23.339L14.483,20.473Z" style="fill:rgb(102,102,102);fill-rule:nonzero;"/>
            </g>
            <g transform="matrix(1,0,0,1,423.821,240.973)">
                <path d="M0,-0.051C0,4.607 3.07,8.035 7.318,8.035C11.515,8.035 14.79,4.862 14.79,-0.102C14.79,-4.862 11.617,-8.086 7.318,-8.086C2.814,-8.086 0,-4.504 0,-0.051M14.483,10.697C12.078,13.051 9.52,14.279 6.091,14.279C-0.819,14.279 -6.858,8.342 -6.858,0C-6.858,-8.495 -1.126,-14.33 5.937,-14.33C9.212,-14.33 12.026,-13.102 14.483,-10.645L14.483,-13.614L21.291,-13.614L21.291,13.563L14.483,13.563L14.483,10.697Z" style="fill:rgb(102,102,102);fill-rule:nonzero;"/>
            </g>
            <g transform="matrix(1,0,0,1,0,112.325)">
                <rect x="461.44" y="105.464" width="7.012" height="36.747" style="fill:rgb(102,102,102);"/>
            </g>
            <g transform="matrix(1,0,0,1,479.764,251.056)">
                <path d="M0,-20.933C2.609,-23.134 5.016,-24.413 8.035,-24.413C13.102,-24.413 17.35,-20.933 17.35,-15.099L17.35,3.48L10.543,3.48L10.543,-9.366C10.543,-14.741 10.083,-18.169 5.937,-18.169C4.043,-18.169 2.405,-17.248 1.331,-15.559C-0.051,-13.359 0,-10.902 0,-8.087L0,3.48L-6.807,3.48L-6.807,-23.697L0,-23.697L0,-20.933Z" style="fill:rgb(102,102,102);fill-rule:nonzero;"/>
            </g>
            <g transform="matrix(1,0,0,1,527.413,232.323)">
                <path d="M0,17.248C-2.917,21.035 -7.012,22.929 -12.335,22.929C-21.598,22.929 -27.586,16.634 -27.586,8.701C-27.586,0.563 -21.239,-5.681 -12.232,-5.681C-6.909,-5.681 -2.405,-3.48 0.308,0.512L-5.374,3.634C-7.318,1.587 -9.212,0.563 -12.181,0.563C-17.401,0.563 -20.728,4.095 -20.728,8.804C-20.728,13.409 -17.504,16.685 -12.487,16.685C-9.469,16.685 -7.063,15.662 -5.374,13.563L0,17.248Z" style="fill:rgb(102,102,102);fill-rule:nonzero;"/>
            </g>
            <g transform="matrix(0,-1,-1,0,534.991,247.421)">
                <path d="M-3.891,-3.94C-6.04,-3.94 -7.831,-2.251 -7.831,-0.05C-7.831,2.099 -6.04,3.891 -3.891,3.891C-1.689,3.891 -0,2.099 -0,-0.05C-0,-2.2 -1.741,-3.94 -3.891,-3.94" style="fill:rgb(102,102,102);fill-rule:nonzero;"/>
            </g>
            <g transform="matrix(1,0,0,1,318.763,182.272)">
                <path d="M0,-1.065C0,6.878 -1.146,13.511 -7.043,20.473C-12.775,27.187 -19.899,30.3 -29.235,30.3C-48.808,30.3 -61.091,15.804 -61.091,-0.901C-61.091,-17.443 -48.152,-31.365 -29.562,-31.365C-17.935,-31.365 -10.481,-27.271 -4.177,-20.392L-12.038,-12.612C-17.033,-17.853 -22.521,-20.637 -29.48,-20.637C-41.273,-20.637 -49.79,-11.629 -49.79,-0.738C-49.79,10.645 -40.537,19.571 -28.744,19.571C-20.964,19.571 -15.805,16.377 -12.611,9.581L-29.645,9.581L-29.645,-1.065L0,-1.065Z" style="fill:rgb(102,102,102);fill-rule:nonzero;"/>
            </g>
            <g transform="matrix(1,0,0,1,323.839,212.162)">
                <path d="M0,-44.549L10.892,-44.549L10.892,-21.865C10.892,-14.086 13.349,-9.99 19.081,-9.99C24.896,-9.99 27.271,-14.004 27.271,-21.374L27.271,-44.549L38.162,-44.549L38.162,-24.486C38.162,-16.46 37.671,-10.564 33.085,-5.487C29.645,-1.637 25.142,0 19.081,0C8.599,0 2.13,-5.323 0.409,-15.477C-0.164,-18.999 0,-21.047 0,-24.65L0,-44.549Z" style="fill:rgb(102,102,102);fill-rule:nonzero;"/>
            </g>
            <g transform="matrix(1,0,0,1,377.805,173.755)">
                <path d="M0,15.559C0,23.012 4.913,28.498 11.71,28.498C18.426,28.498 23.667,23.421 23.667,15.477C23.667,7.861 18.59,2.703 11.71,2.703C4.504,2.703 0,8.434 0,15.559M23.175,32.756C19.326,36.524 15.231,38.489 9.745,38.489C-1.311,38.489 -10.974,28.99 -10.974,15.641C-10.974,2.047 -1.802,-7.289 9.499,-7.289C14.74,-7.289 19.244,-5.323 23.175,-1.393L23.175,-22.93L34.067,-22.93L34.067,37.342L23.175,37.342L23.175,32.756Z" style="fill:rgb(102,102,102);fill-rule:nonzero;"/>
            </g>
            <g transform="matrix(1,0,0,1,451.506,194.8)">
                <path d="M0,-10.891C-1.474,-15.968 -6.142,-19.08 -11.956,-19.08C-17.361,-19.08 -21.538,-16.377 -23.666,-10.891L0,-10.891ZM8.026,7.862C3.357,14.495 -2.784,17.443 -11.956,17.443C-25.796,17.443 -34.723,7.289 -34.723,-5.486C-34.723,-17.36 -26.123,-28.334 -12.12,-28.334C1.638,-28.334 10.974,-18.507 10.974,-4.749C10.974,-3.766 10.892,-3.275 10.892,-2.292L-24.158,-2.292C-23.093,4.177 -18.18,7.78 -11.956,7.78C-7.288,7.78 -4.177,6.47 -1.146,3.522L8.026,7.862Z" style="fill:rgb(102,102,102);fill-rule:nonzero;"/>
            </g>
            <g transform="matrix(1,0,0,1,476.073,189.396)">
                <path d="M0,-0.082C0,7.371 4.913,12.857 11.71,12.857C18.426,12.857 23.667,7.78 23.667,-0.164C23.667,-7.78 18.589,-12.938 11.71,-12.938C4.503,-12.938 0,-7.207 0,-0.082M23.175,17.115C19.326,20.883 15.231,22.848 9.744,22.848C-1.311,22.848 -10.975,13.349 -10.975,-0C-10.975,-13.594 -1.802,-22.93 9.499,-22.93C14.74,-22.93 19.244,-20.964 23.175,-17.034L23.175,-21.783L34.067,-21.783L34.067,21.701L23.175,21.701L23.175,17.115Z" style="fill:rgb(102,102,102);fill-rule:nonzero;"/>
            </g>
            <g transform="matrix(1,0,0,1,0,1.922)">
                <rect x="515.952" y="148.903" width="10.892" height="60.272" style="fill:rgb(102,102,102);"/>
            </g>
        </g>
    </g>
</svg>
